<svg viewBox="0 0 24 24" fill="currentColor" xmlns="http://www.w3.org/2000/svg">
  <path d="M22.84 2.998c-.006-.008-.015-.013-.022-.02-.012-.01-.023-.022-.036-.03a1.001 1.001 0 0 0-.704-.168c-13.854 1.024-17.153 8.11-17.153 13.22 0 4.396 3.585 8 7.996 8 4.41 0 8-3.603 8-8.013 0-1.694-.53-3.264-1.432-4.555l1.878-1.884a1 1 0 0 0-1.414-1.414l-1.88 1.88A7.953 7.953 0 0 0 12.917 8c5.276 0 7.76 5.068 7.834 5.24a1 1 0 0 0 1.8-.881c-.094-.218-2.394-5.39-7.633-6.164.24-.074.48-.137.72-.195h7.204a1 1 0 0 0 .998-1.002zM12.92 22c-3.309 0-6-2.691-6-5.998 0-4.053 2.452-9.52 13.06-11.004h-5.98c-3.078.635-5.517 2.176-7.26 4.404a1.006 1.006 0 0 0-.72-.325H2a1 1 0 1 0 0 2h3.073c-.86 1.542-1.317 3.254-1.317 5.023C3.756 19.22 7.89 22 12.92 22c3.31 0 6-2.691 6-5.998 0-2.26-1.193-4.264-3.076-5.386a5.994 5.994 0 0 1 2.296 4.731c0 3.654-2.977 6.653-6.22 6.653z"/>
</svg>
