<svg viewBox="0 0 24 24" fill="currentColor" xmlns="http://www.w3.org/2000/svg">
  <path d="M11.5725 0c-.1763 0-.3098.0013-.3584.0067-.0516.0053-.2159.021-.3636.0328-3.4088.3073-6.6017 2.1463-8.624 4.9728C1.1004 6.584.3802 8.3666.1082 10.255c-.0962.669-.1417 1.1792-.1369 1.672.0041.8392.0849 1.6792.2426 2.4824.8855 4.5073 4.0166 8.2344 8.2142 9.7822.8124.3002 1.6706.5073 2.5669.6198.299.0376.5765.0555.9037.0579.5761.0044 1.0731-.0431 1.6109-.1536 2.2174-.4549 4.2499-1.5174 5.8569-3.0645 1.7824-1.7166 2.9359-3.9534 3.3249-6.4413.0944-.6049.1417-1.1111.1554-1.6648.0083-.339-.0102-.7651-.0427-1.1177-.0376-.407-.1236-1.0259-.2009-1.4438-.0884-.4772-.2136-.9581-.3729-1.4332-.3163-.9419-.7546-1.8511-1.3058-2.7045-1.5259-2.3632-3.7935-4.0865-6.4473-4.8991C14.0407.2813 12.7774.0586 11.5725 0zm-.0076.9932c.9108.0098 1.8149.1328 2.6832.3663 2.4174.65 4.4928 2.1395 5.8874 4.2247.4783.7154.8628 1.487 1.1444 2.3055.1177.3421.2216.7001.3084 1.0696.075.3201.138.6629.1872 1.0154.0366.2627.0636.5434.0796.8299.0152.2725.0143.6152-.011.9055-.0589 2.097-.7178 4.122-1.9058 5.8574-.2326.3396-.4823.6677-.7481.9819-1.7788 2.1037-4.2635 3.4893-7.03 3.925-.5424.0854-1.0942.1282-1.6483.1274-.2698-.0003-.5404-.0114-.8065-.0343-.6093-.0525-1.2151-.1557-1.8116-.3097-3.7986-.9812-6.8091-3.9131-7.9083-7.6973-.1626-.5601-.2814-1.1372-.3541-1.7233-.0634-.5108-.0882-1.0347-.0723-1.5624.0163-.5405.072-1.0745.1674-1.5982.2149-1.1803.6052-2.3166 1.16-3.3779 1.2138-2.3216 3.1685-4.1523 5.5458-5.1911.7688-.336 1.5787-.5856 2.4151-.7446.4714-.0897.9518-.1506 1.4377-.1819.1762-.0073.4034-.0135.5802-.0137.088.0001.1637.0019.2252.0052z"/>
</svg>
